<svg width="36" height="36" viewBox="0 0 36 36" fill="none" xmlns="http://www.w3.org/2000/svg">
	<defs>
		<clipPath id="clip">
			<rect id="achievementsStar" width="36" height="36" fill="white" fill-opacity="0"/>
		</clipPath>
	</defs>
	<g clip-path="url(#clip4)">
		<path id="path" d="M4.65 13.33L5.01 12.97L5.01 12.45L5.01 5.79L11.66 5.79L12.19 5.79L12.57 5.41L18 0L23.41 5.41L23.79 5.79L24.32 5.79L30.97 5.79L30.97 12.45L30.97 12.97L31.33 13.33L36 18L31.33 22.65L30.97 23.01L30.97 23.53L30.97 30.19L24.32 30.19L23.79 30.19L23.41 30.57L18 36L12.57 30.57L12.19 30.19L11.66 30.19L5.01 30.19L5.01 23.53L5.01 23.01L4.65 22.65L0 18L4.65 13.33Z" fill="#666CFF" fill-opacity="0.700000" fill-rule="nonzero"/>
		<circle id="circle" cx="18" cy="18" r="7" fill="#878CFF" fill-opacity="1"/>
	</g>
</svg>