<svg width="512" height="437" viewBox="0 0 512 437" fill="none" xmlns="http://www.w3.org/2000/svg">
	<path d="M182.84 0L124.66 0C108.29 0 92.07 3.22 76.95 9.5C61.83 15.77 48.08 24.97 36.51 36.57C24.93 48.16 15.75 61.92 9.48 77.07C3.22 92.22 0 108.46 0 124.85C0 141.25 3.22 157.49 9.48 172.63C15.75 187.78 24.93 201.55 36.51 213.14C48.08 224.73 61.83 233.93 76.95 240.21C92.07 246.48 108.29 249.71 124.66 249.71L208.88 249.71C211.54 249.71 213.7 247.55 213.7 244.88L213.7 192.11C213.7 189.44 211.54 187.28 208.88 187.28L124.66 187.29C116.47 187.29 108.36 185.67 100.8 182.53C93.24 179.4 86.37 174.8 80.58 169C74.79 163.2 70.2 156.32 67.07 148.75C63.93 141.17 62.32 133.05 62.32 124.85C62.32 116.65 63.93 108.54 67.07 100.96C70.2 93.39 74.79 86.5 80.58 80.71C86.37 74.91 93.24 70.31 100.8 67.17C108.36 64.03 116.47 62.42 124.66 62.42L137.71 62.42C167.06 62.04 191.44 38.09 191.44 8.61C191.44 3.85 187.59 0 182.84 0Z" fill="#222222" fill-opacity="1.000000" fill-rule="nonzero"/>
	<path d="M387.33 187.28L303.11 187.28C300.45 187.28 298.29 189.44 298.29 192.11L298.29 244.88C298.29 247.55 300.45 249.71 303.11 249.71L387.33 249.71C395.52 249.71 403.63 251.32 411.19 254.46C418.75 257.59 425.62 262.19 431.41 267.99C437.2 273.79 441.79 280.67 444.93 288.25C448.06 295.82 449.67 303.94 449.67 312.14C449.67 320.34 448.06 328.46 444.93 336.03C441.79 343.61 437.2 350.49 431.41 356.29C425.62 362.08 418.75 366.68 411.19 369.82C403.63 372.96 395.52 374.57 387.34 374.57L63.13 374.57C58.38 374.57 54.54 378.42 54.54 383.18C54.54 412.9 78.59 437 108.27 437L387.34 437C403.71 437 419.92 433.77 435.04 427.49C450.16 421.22 463.91 412.02 475.48 400.43C487.06 388.83 496.24 375.07 502.51 359.92C508.77 344.77 512 328.53 512 312.14C512 295.74 508.77 279.51 502.51 264.36C496.24 249.21 487.06 235.44 475.48 223.85C463.91 212.26 450.16 203.06 435.04 196.79C419.92 190.51 403.71 187.28 387.33 187.28Z" fill="#222222" fill-opacity="1.000000" fill-rule="evenodd"/>
	<path d="M457.73 53.81C457.73 58.57 453.89 62.42 449.14 62.42C400.2 62.42 301.07 62.42 296.06 62.42C291.06 62.42 287.16 66.33 287.16 71.34C287.16 75.98 287.16 321.73 287.16 358.77C287.16 361.43 285 363.42 282.34 363.42L229.65 363.42C226.99 363.42 224.83 361.43 224.83 358.77C224.83 321.73 224.83 75.98 224.83 71.34C224.83 66.33 220.93 62.42 215.92 62.42C210.91 62.42 161.69 62.42 137.71 62.42C167.06 62.04 191.44 38.09 191.44 8.61C191.44 3.85 187.59 0 182.84 0L404 0C433.68 0 457.73 24.09 457.73 53.81Z" fill="#181818" fill-rule="evenodd"/>
</svg>
