<svg width="26.001068" height="25.999908" viewBox="0 0 26.0011 25.9999" fill="none" xmlns="http://www.w3.org/2000/svg" xmlns:xlink="http://www.w3.org/1999/xlink">
	<path id="Shape" d="M10.5 0C4.7 0 0 4.7 0 10.5C0 16.29 4.7 21 10.5 21C12.94 21 15.2 20.16 16.98 18.75L23.86 25.63C24.35 26.12 25.14 26.12 25.63 25.63C26.12 25.14 26.12 24.35 25.63 23.86L18.75 16.98C20.16 15.2 21 12.94 21 10.5C21 4.7 16.29 0 10.5 0ZM2.5 10.5C2.5 6.08 6.08 2.5 10.5 2.5C14.91 2.5 18.5 6.08 18.5 10.5C18.5 14.91 14.91 18.5 10.5 18.5C6.08 18.5 2.5 14.91 2.5 10.5Z" fill="#FFFFFF" fill-opacity="1.000000" fill-rule="nonzero"/>
</svg>
