<svg viewBox="0 0 16 18" xmlns="http://www.w3.org/2000/svg" xmlns:xlink="http://www.w3.org/1999/xlink" width="16.000000" height="18.000000" fill="none" customFrame="#000000">
	<path id="Vector 3" d="M7.71511 4.39823C7.71511 4.45783 7.65277 4.45783 7.65277 4.45783L7.59043 4.45783C7.52809 4.45783 7.52809 4.39823 7.46575 4.33863C7.46575 4.33863 7.40341 4.27904 7.40341 4.21944C7.40341 4.15984 7.40341 4.15984 7.46575 4.15984L7.59043 4.21944C7.65277 4.27904 7.71511 4.33863 7.71511 4.39823ZM6.593 3.80226C6.593 3.50428 6.46833 3.32549 6.28131 3.32549C6.28131 3.32549 6.28131 3.38509 6.21897 3.38509L6.21897 3.50428L6.40599 3.50428C6.40599 3.62347 6.46833 3.68307 6.46833 3.80226L6.593 3.80226ZM8.77488 3.50428C8.89956 3.50428 8.9619 3.62347 9.02424 3.80226L9.14891 3.80226C9.08658 3.74267 9.08657 3.68307 9.08657 3.62347C9.08657 3.56388 9.08657 3.50428 9.02424 3.44468C8.9619 3.38509 8.89956 3.32549 8.83722 3.32549C8.83722 3.32549 8.77488 3.38509 8.71254 3.38509C8.71254 3.44468 8.77488 3.44468 8.77488 3.50428ZM6.9047 4.45783C6.84236 4.45783 6.84236 4.45783 6.84236 4.39823C6.84236 4.33863 6.84236 4.27904 6.9047 4.21944C7.02938 4.21944 7.09172 4.15984 7.09172 4.15984C7.15406 4.15984 7.15406 4.21944 7.15406 4.21944C7.15406 4.27904 7.09172 4.33863 6.96704 4.45783L6.9047 4.45783ZM6.21897 4.39823C5.96961 4.27904 5.90727 4.10025 5.90727 3.80226C5.90727 3.62347 5.90727 3.50428 6.03195 3.38509C6.09429 3.26589 6.21897 3.2063 6.34365 3.2063C6.46833 3.2063 6.53066 3.26589 6.65534 3.38509C6.71768 3.56388 6.78002 3.74267 6.78002 3.92146L6.78002 4.04065L6.84236 4.04065L6.84236 3.98105C6.9047 3.98105 6.9047 3.86186 6.9047 3.62347C6.9047 3.44468 6.9047 3.26589 6.78002 3.0871C6.65534 2.90831 6.53066 2.78912 6.28131 2.78912C6.09429 2.78912 5.90727 2.90831 5.84493 3.0871C5.72025 3.32549 5.69532 3.50428 5.69532 3.80226C5.69532 4.04065 5.78259 4.27904 6.03195 4.51742C6.09429 4.45783 6.15663 4.45783 6.21897 4.39823ZM14.0114 12.8014C14.0737 12.8014 14.0737 12.7775 14.0737 12.7239C14.0737 12.5928 14.0114 12.4378 13.8244 12.265C13.6373 12.0862 13.3256 11.973 12.9516 11.9253C12.8893 11.9193 12.8269 11.9193 12.8269 11.9193C12.7646 11.9074 12.7646 11.9074 12.7023 11.9074C12.6399 11.9015 12.5152 11.8895 12.4529 11.8776C12.6399 11.3234 12.7023 10.8347 12.7023 10.4056C12.7023 9.80961 12.5776 9.39244 12.3282 9.03486C12.0789 8.67728 11.8295 8.49849 11.5178 8.43889C11.4555 8.49849 11.4555 8.49849 11.4555 8.55808C11.7672 8.67728 12.0789 8.91566 12.2659 9.27324C12.4529 9.69042 12.5152 10.048 12.5152 10.4652C12.5152 10.7989 12.4529 11.2936 12.2035 11.9253C11.9542 12.0207 11.7048 12.2412 11.5178 12.5868C11.5178 12.6405 11.5178 12.6703 11.5801 12.6703C11.5801 12.6703 11.6425 12.6166 11.7048 12.5153C11.8295 12.414 11.8918 12.3127 12.0165 12.2114C12.2035 12.11 12.3282 12.0564 12.5152 12.0564C12.8269 12.0564 13.1386 12.0981 13.3256 12.1816C13.575 12.259 13.6997 12.3425 13.762 12.4378C13.8244 12.5272 13.8867 12.6107 13.949 12.6881C13.949 12.7656 14.0114 12.8014 14.0114 12.8014M8.27616 4.15984C8.21383 4.10025 8.21383 3.98105 8.21383 3.86186C8.21383 3.62347 8.21383 3.50428 8.3385 3.32549C8.46318 3.2063 8.58786 3.1467 8.71254 3.1467C8.89956 3.1467 9.02424 3.26589 9.14891 3.38509C9.21125 3.56388 9.27359 3.68307 9.27359 3.86186C9.27359 4.15984 9.14891 4.33863 8.89956 4.39823C8.89956 4.39823 8.9619 4.45783 9.02424 4.45783C9.14891 4.45783 9.21125 4.51742 9.33593 4.57702C9.39827 4.21944 9.46061 3.98105 9.46061 3.68307C9.46061 3.32549 9.39827 3.0871 9.27359 2.90831C9.08658 2.72952 8.89956 2.66993 8.6502 2.66993C8.46318 2.66993 8.27616 2.72952 8.08915 2.84872C7.96447 3.02751 7.90213 3.1467 7.90213 3.32549C7.90213 3.62347 7.96447 3.86186 8.08915 4.10025C8.15149 4.10025 8.21383 4.15984 8.27616 4.15984ZM9.02424 5.11339C8.21383 5.64976 7.59043 5.88815 7.09172 5.88815C6.65534 5.88815 6.21897 5.70936 5.84493 5.41137C5.90727 5.53057 5.96961 5.64976 6.03195 5.70936L6.40599 6.06694C6.65534 6.30533 6.96704 6.42452 7.27874 6.42452C7.71511 6.42452 8.21383 6.18613 8.83722 5.76895L9.39827 5.41137C9.52295 5.29218 9.64763 5.17299 9.64763 4.9942C9.64763 4.9346 9.64763 4.875 9.58529 4.875C9.52295 4.75581 9.21125 4.57702 8.58786 4.39823C8.02681 4.15984 7.59043 4.04065 7.34107 4.04065C7.15406 4.04065 6.84236 4.15984 6.40599 4.39823C6.03195 4.63662 5.78259 4.875 5.78259 5.11339C5.78259 5.11339 5.84493 5.17299 5.90727 5.29218C6.28131 5.59016 6.65534 5.76895 7.02938 5.76895C7.52809 5.76895 8.15149 5.53057 8.9619 4.9346L8.9619 5.05379C9.02424 5.05379 9.02424 5.11339 9.02424 5.11339ZM10.458 17.1519C10.7074 17.6001 11.1438 17.8254 11.6425 17.8254C11.7672 17.8254 11.8918 17.8075 12.0165 17.7717C12.1412 17.7479 12.2659 17.7062 12.3282 17.6585C12.3906 17.6168 12.4529 17.5751 12.5152 17.5274C12.6399 17.4857 12.6399 17.4559 12.7023 17.4261L13.762 16.55C14.0114 16.3599 14.2607 16.1936 14.5724 16.0494C14.8218 15.9064 15.0711 15.811 15.1958 15.7574C15.3828 15.7097 15.5075 15.6382 15.6322 15.5428C15.6945 15.4534 15.7569 15.3402 15.7569 15.1972C15.7569 15.0243 15.6322 14.8932 15.5075 14.7979C15.3828 14.7025 15.2582 14.6369 15.1335 14.5952C15.0088 14.5535 14.8841 14.4582 14.6971 14.2972C14.5724 14.1423 14.4478 13.9277 14.3854 13.6476L14.3231 13.302C14.2607 13.1411 14.2607 13.0219 14.1984 12.9563C14.1984 12.9384 14.1984 12.9325 14.1361 12.9325C14.0737 12.9325 13.949 12.9861 13.8867 13.0874C13.762 13.1887 13.6373 13.302 13.5127 13.4212C13.4503 13.5404 13.2633 13.6476 13.1386 13.749C12.9516 13.8503 12.7646 13.9039 12.6399 13.9039C12.1412 13.9039 11.8918 13.7728 11.7048 13.5165C11.5801 13.3258 11.5178 13.1053 11.4555 12.855C11.3308 12.7537 11.2684 12.7001 11.1438 12.7001C10.8321 12.7001 10.7074 13.01 10.7074 13.6357L10.7074 15.4892C10.7074 15.5428 10.6451 15.662 10.6451 15.8468C10.5827 16.0315 10.5827 16.2413 10.5827 16.4785L10.458 17.14L10.458 17.1501M1.41884 16.8349C1.9986 16.9159 2.66563 17.0894 3.41993 17.354C4.17424 17.6162 4.63555 17.7533 4.80387 17.7533C5.24024 17.7533 5.60181 17.5685 5.90104 17.2115C5.96338 17.0959 5.96338 16.96 5.96338 16.8039C5.96338 16.2407 5.60804 15.5285 4.89738 14.6644L4.47347 14.122C4.38619 14.0088 4.28022 13.836 4.14307 13.6035C4.01216 13.3711 3.89371 13.1923 3.8002 13.0672C3.71916 12.9301 3.58825 12.793 3.41993 12.656C3.25785 12.5189 3.07083 12.4295 2.86511 12.3818C2.60329 12.4295 2.42251 12.5129 2.33523 12.6262C2.24796 12.7394 2.19808 12.8645 2.18562 12.9957C2.16691 13.1208 2.12951 13.2042 2.06717 13.246C2.00483 13.2817 1.89886 13.3115 1.75548 13.3413C1.72431 13.3413 1.6682 13.3413 1.58716 13.3473L1.41884 13.3473C1.08844 13.3473 0.864024 13.383 0.745579 13.4426C0.589731 13.6155 0.50869 13.8121 0.50869 14.0207C0.50869 14.1161 0.533625 14.277 0.583497 14.5035C0.633368 14.724 0.658304 14.9028 0.658304 15.0279C0.658304 15.2723 0.583497 15.5166 0.427649 15.7609C0.2718 16.0172 0.190759 16.2079 0.190759 16.3438C0.253099 16.575 0.664538 16.7377 1.41884 16.8331M3.49474 11.4157C3.49474 11.0045 3.60695 10.5516 3.83761 10.0152C4.06203 9.47885 4.28645 9.12127 4.50464 8.88289C4.49217 8.82329 4.461 8.82329 4.41113 8.82329L4.34879 8.76369C4.168 8.94248 3.94982 9.35966 3.68799 9.95563C3.42617 10.492 3.28902 10.9867 3.28902 11.3502C3.28902 11.6184 3.35759 11.8508 3.48227 12.0534C3.61942 12.2501 3.94982 12.5362 4.47347 12.8997L5.13426 13.3109C5.8387 13.895 6.21273 14.3002 6.21273 14.5386C6.21273 14.6638 6.15039 14.7889 5.96338 14.926C5.8387 15.069 5.67038 15.1405 5.527 15.1405C5.51453 15.1405 5.5083 15.1525 5.5083 15.1823C5.5083 15.1882 5.57064 15.3074 5.70155 15.5398C5.96338 15.8795 6.52443 16.0464 7.2725 16.0464C8.64396 16.0464 9.70373 15.51 10.5141 14.4373C10.5141 14.1393 10.5141 13.9546 10.4518 13.8771L10.4518 13.6566C10.4518 13.2692 10.5141 12.9772 10.6388 12.7865C10.7635 12.5958 10.8882 12.5064 11.0752 12.5064C11.1999 12.5064 11.3246 12.5481 11.4492 12.6375C11.5116 12.1786 11.5116 11.7793 11.5116 11.4217C11.5116 10.8794 11.5116 10.4324 11.3869 10.0152C11.3246 9.65765 11.1999 9.35966 11.0752 9.12127L10.7012 8.5849C10.5765 8.40611 10.5141 8.22732 10.3895 8.04853C10.3271 7.81015 10.2648 7.63136 10.2648 7.33337C10.0778 7.03539 9.95309 6.73741 9.76607 6.43942C9.64139 6.14144 9.51672 5.84345 9.39204 5.60507L8.83098 6.02224C8.20759 6.43942 7.70888 6.61821 7.2725 6.61821C6.89846 6.61821 6.58677 6.55862 6.39975 6.32023L6.02571 6.02224C6.02571 6.20103 5.96338 6.43942 5.8387 6.67781L5.44596 7.39297C5.27141 7.81015 5.1779 8.04853 5.1592 8.22732C5.13426 8.34652 5.11556 8.46571 5.10309 8.46571L4.63555 9.35966C4.1306 10.2536 3.87501 11.082 3.87501 11.7674C3.87501 11.9044 3.88748 12.0475 3.91241 12.1905C3.63189 12.0058 3.49474 11.7495 3.49474 11.4157M7.95823 17.0536C7.14782 17.0536 6.52443 17.1585 6.08805 17.3665L6.08805 17.3486C5.77636 17.7062 5.42726 17.8909 4.94101 17.8909C4.63555 17.8909 4.15554 17.7777 3.50721 17.5512C2.85265 17.3367 2.27289 17.1722 1.76794 17.0637C1.71807 17.05 1.60586 17.0298 1.42508 17.0023C1.25053 16.9755 1.08844 16.9481 0.945063 16.9207C0.814151 16.8939 0.664537 16.8534 0.502455 16.7985C0.346606 16.7514 0.221928 16.6901 0.128419 16.6156C0.0423907 16.5405 0 16.4558 0 16.3611C0 16.2657 0.0211954 16.1638 0.0635861 16.0554C0.103483 15.9898 0.147121 15.9242 0.190758 15.8646C0.234396 15.7991 0.271799 15.7395 0.296735 15.6799C0.334139 15.6263 0.359074 15.5726 0.38401 15.513C0.408946 15.4594 0.433881 15.4058 0.446349 15.3402C0.458817 15.2806 0.471285 15.221 0.471285 15.1614C0.471285 15.1018 0.446349 14.923 0.396478 14.6072C0.346606 14.2973 0.321671 14.1006 0.321671 14.0171C0.321671 13.7549 0.38401 13.5463 0.521156 13.3973C0.658303 13.2484 0.789215 13.1709 0.926362 13.1709L1.64326 13.1709C1.69937 13.1709 1.78664 13.1411 1.91756 13.0696C1.96119 12.9742 1.9986 12.8967 2.02353 12.8252C2.0547 12.7537 2.06717 12.7001 2.07964 12.6762C2.09211 12.6405 2.10457 12.6047 2.11704 12.5749C2.14198 12.5332 2.17315 12.4855 2.21678 12.4378C2.16691 12.3782 2.14198 12.3008 2.14198 12.2054C2.14198 12.1399 2.14198 12.0803 2.15445 12.0445C2.15445 11.8299 2.26042 11.526 2.48484 11.1267L2.70303 10.7512C2.88382 10.4294 3.02096 10.191 3.1207 9.95265C3.22668 9.71427 3.33889 9.35669 3.46357 8.87991C3.56331 8.46274 3.8002 8.04556 4.17424 7.62838L4.64178 7.09201C4.96595 6.73443 5.1779 6.43645 5.29635 6.19806C5.41479 5.95967 5.47713 5.66169 5.47713 5.4233C5.47713 5.30411 5.44596 4.94653 5.37739 4.35056C5.31505 3.75459 5.28388 3.15863 5.28388 2.62226C5.28388 2.20508 5.32128 1.9071 5.40232 1.60911C5.48336 1.31113 5.62674 1.01314 5.8387 0.774757C6.02571 0.536371 6.27507 0.297984 6.64911 0.17879C7.02314 0.0595967 7.45952 0 7.95823 0C8.14525 0 8.33227 0 8.51929 0.0595967C8.7063 0.0595967 8.95566 0.119193 9.26736 0.238387C9.51672 0.35758 9.76607 0.476774 9.95309 0.655564C10.2024 0.834354 10.3895 1.13234 10.5765 1.43032C10.7012 1.7879 10.8258 2.14548 10.8882 2.62226C10.9505 2.92024 10.9505 3.21822 11.0129 3.6354C11.0129 3.99298 11.0752 4.23137 11.0752 4.41016C11.1375 4.58895 11.1375 4.82733 11.1999 5.12532C11.2622 5.36371 11.3246 5.60209 11.4492 5.78088C11.5739 6.01927 11.6986 6.25766 11.8856 6.49604C12.0726 6.79403 12.322 7.09201 12.5713 7.44959C13.1324 8.04556 13.5688 8.70112 13.8181 9.35669C14.1298 9.95265 14.3168 10.7274 14.3168 11.5558C14.3168 11.967 14.2545 12.3663 14.1298 12.7537C14.2545 12.7537 14.3168 12.8014 14.3792 12.8848C14.4415 12.9682 14.5039 13.147 14.5662 13.4271L14.6285 13.8682C14.6909 13.9993 14.7532 14.1244 14.9402 14.2317C15.0649 14.339 15.1896 14.4284 15.3766 14.4999C15.5013 14.5595 15.6883 14.6429 15.813 14.7502C15.9377 14.8694 16 14.9945 16 15.1256C16 15.3283 15.9377 15.4773 15.813 15.5845C15.6883 15.7037 15.5636 15.7872 15.3766 15.8408C15.2519 15.9004 15.0026 16.0196 14.6285 16.1877C14.3168 16.3641 14.0051 16.578 13.6934 16.8313L13.0701 17.3385C12.8207 17.5709 12.5713 17.7378 12.3843 17.8391C12.1973 17.9464 11.9479 18 11.6986 18L11.2622 17.9523C10.7635 17.8272 10.4518 17.5888 10.2648 17.2252C9.26736 17.1096 8.45695 17.0524 7.95823 17.0524" fill="rgb(234,170,2)" fill-rule="nonzero" />
</svg>
